<!-- by TradingView --><svg width="56" height="56" viewBox="0 0 56 56" xmlns="http://www.w3.org/2000/svg"><path fill="#181B1E" d="M0 0h56v56H0z"/><path d="M35.16 31.08a4.4 4.4 0 0 1-2.7.92A4.56 4.56 0 0 1 28 27.47 4.5 4.5 0 0 1 32.45 23a4.57 4.57 0 0 1 4.53 4.47c0 1.03-.34 1.95-.93 2.7l1.74 1.78.76-.75-1.17-1.2a5.5 5.5 0 1 0-2.36 2.38l1.2 1.12.76-.75-1.82-1.67Z" fill="#00A0DF"/><path d="M32.5 24a3.5 3.5 0 0 1 3.5 3.5 3.5 3.5 0 0 1-3.5 3.5 3.5 3.5 0 0 1-3.5-3.5 3.5 3.5 0 0 1 3.5-3.5Zm0 1c-1.4 0-2.5 1.1-2.5 2.5s1.1 2.5 2.5 2.5 2.5-1.1 2.5-2.5-1.1-2.5-2.5-2.5ZM4 26v-1h4v8H7v-7H4ZM13 26v-1H9v8h1v-7h3ZM4 24h9v-1H4v1Z" fill="#00A0DF"/><path d="M48.63 33 45 23h3.37L52 33h-3.37ZM43.38 33H40l1.62-4H45l-1.62 4ZM22.63 33 19 23h3.37L26 33h-3.37ZM17.38 33H14l1.62-4H19l-1.62 4Z" fill="#fff"/></svg>